<svg width="84" height="80" fill="none" xmlns="http://www.w3.org/2000/svg"><path d="M38.6 79.97c7.113-.686 14.1-21.92 12.852-34.836-1.248-12.915-8.025-22.829-15.138-22.142-7.113.687-11.867 11.715-10.62 24.63 1.249 12.915 7.78 32.844 12.906 32.349Zm2.787-50.198a7.333 7.333 0 0 1 8.002 6.592 7.331 7.331 0 1 1-8.002-6.591v-.001Z" fill="url(#a)"/><path d="M83.141 54.902c1.544-6.978-17.817-21.44-30.486-24.244-12.669-2.804-24.192.578-25.736 7.554-1.544 6.978 7.473 14.907 20.141 17.711 12.671 2.807 34.21 3.738 36.081-1.021ZM34.935 35.483a7.332 7.332 0 0 1 8.74-5.573 7.33 7.33 0 1 1-8.74 5.573Z" fill="url(#b)"/><path d="M71.66 2.841C64.063.073 46.25 13.443 39.565 24.75c-6.686 11.306-7.035 23.444-.781 27.109 6.255 3.665 16.746-2.53 23.432-13.836C68.9 26.716 74.984 5.486 71.66 2.84v.001ZM38.664 43.298a7.4 7.4 0 0 1-3.372-8.468c.17-.574.412-1.138.731-1.679 2.086-3.528 6.65-4.704 10.193-2.628 3.544 2.076 4.726 6.62 2.64 10.148-2.087 3.528-6.651 4.704-10.194 2.627h.002Z" fill="url(#c)"/><path d="M19.803.647c-5.35 4.736 1.375 25.682 9.976 35.397 8.6 9.715 19.91 13.752 25.26 9.015 5.35-4.738 2.716-16.453-5.885-26.17-8.6-9.714-25.598-21.633-29.35-18.244v.002Zm27.147 41.91a7.334 7.334 0 0 1-10.348-.629 7.33 7.33 0 0 1 .63-10.347 7.33 7.33 0 0 1 10.347.629 7.332 7.332 0 0 1-.63 10.349l.001-.002Z" fill="url(#d)"/><path d="M.212 47.12c2.852 6.553 25.204 6.52 37.102 1.343 11.897-5.178 19.23-14.686 16.38-21.24-2.852-6.552-14.808-7.665-26.706-2.49C15.09 29.912-1.854 43.79.21 47.12h.001Zm48.602-12.977a7.333 7.333 0 0 1-3.797 9.646 7.33 7.33 0 1 1 3.797-9.646Z" fill="url(#e)"/><path d="M34.798 36.331a7.332 7.332 0 0 1 14.198-1.734c1.215 3.113 2.086 6.69 2.457 10.538C52.7 58.05 45.761 77.845 38.6 79.97c9.094-2.7 25.079-20.184 27.644-37.52 1.946-13.15-15.63-23.477-27.13-19.187-6.582 2.84-5.058 9.763-4.316 13.069v-.002Z" fill="url(#f)"/><path d="M39.137 43.778a7.33 7.33 0 0 1 2.737-14.038c3.336-.193 7.008.084 10.78.919 12.67 2.804 32.033 17.267 30.487 24.243.672-10.641-12.772-31.345-28.466-39.142-11.905-5.914-27.157 7.611-26.632 19.873.667 7.14 7.721 7.829 11.094 8.144v.001Z" fill="url(#g)"/><path d="M47.962 41.876a7.475 7.475 0 0 1-9.335 1.45 7.403 7.403 0 0 1-3.372-8.47c.86-3.27 2.281-6.715 4.274-10.083C46.217 13.463 64.785.113 71.637 2.858 56.455-1.416 38.23 5.514 25.766 18.176c-9.453 9.604-1.173 28.501 10.841 31.828 7.108 1.59 9.99-4.98 11.353-8.127l.002-.001Z" fill="url(#h)"/><path d="M19.389 46.91c5.88 11.257 24.657 9.954 32.236.898-.03-.88-.087-1.772-.173-2.673-.371-3.847-1.242-7.425-2.457-10.538l-.023-.06a7.331 7.331 0 0 1-11.013 8.589c-2.813-1.804-5.62-4.188-8.182-7.08-8.6-9.716-15.325-30.662-9.975-35.398-6.355 5.625-8.528 30.731-.415 46.263l.002-.001Z" fill="url(#i)"/><path d="M48.814 34.143a7.333 7.333 0 0 1-2.238 8.726c-2.585 2.117-5.719 4.05-9.262 5.593-11.898 5.177-34.25 5.21-37.102-1.344 3.234 7.432 26.944 17.5 44.224 14.584a13.735 13.735 0 0 0 5.856-2.485c1.196-4.028 1.662-8.904 1.161-14.084-.37-3.847-1.242-7.425-2.457-10.537l-.182-.454v.001Z" fill="url(#j)"/><path style="mix-blend-mode:multiply" d="M32.401 62.154c2.91.233 8.749.104 12.035-.451a13.735 13.735 0 0 0 5.856-2.485c1.196-4.028 1.661-8.904 1.161-14.084-.37-3.846-1.242-7.425-2.457-10.537l-.034-.085c.053.14.1.281.144.423 3.334 9.711-6.905 25.868-25.871 25.898l9.166 1.32Z" fill="url(#k)"/><path style="mix-blend-mode:multiply" d="M63.854 51.635c1.12-2.694 1.903-5.887 2.392-9.183a13.696 13.696 0 0 0-.555-6.337c-3.46-2.381-7.954-4.33-13.035-5.456-3.773-.835-7.445-1.114-10.78-.92l-.092.006c.15-.007.299-.008.446-.006 10.266-.169 23.43 15.824 15.362 34.59l3.632-6.256 2.63-6.438Z" fill="url(#l)"/><path style="mix-blend-mode:multiply" d="M72.712 30.713c-2.216-1.899-4.502-6.942-18.016-15.042a13.724 13.724 0 0 0-6.197-1.43c-3.335 2.555-6.422 6.27-9.062 10.755-1.96 3.33-3.371 6.691-4.218 9.923l-.023.09c.145-.302.096-.313.145-.454 3.01-9.817 23.882-14.26 37.371-3.842Z" fill="url(#m)"/><path style="mix-blend-mode:multiply" d="M33.052 12.082c-2.49 1.521-5.081 4.006-7.413 6.386a13.716 13.716 0 0 0-3.276 5.452c1.399 3.961 3.888 8.18 7.338 12.076 2.562 2.894 5.369 5.277 8.182 7.081l.078.049a6.999 6.999 0 0 1-.364-.258C29.192 36.97 29.691 16.7 44.513 5.843l-11.461 6.24Z" fill="url(#n)"/><path style="mix-blend-mode:multiply" d="M15.734 37.6c.676 2.838 2.04 6.416 3.584 9.37a13.705 13.705 0 0 0 4.173 4.8c4.2-.106 8.98-1.171 13.753-3.248 3.543-1.541 6.677-3.474 9.262-5.592l.07-.06a6.602 6.602 0 0 1-.358.267c-8.206 6.171-26.906.042-32.32-15.913l.735 5.188 1.1 5.188Z" fill="url(#o)"/><defs><linearGradient id="a" x1="45.667" y1="46.811" x2="24.581" y2="58.424" gradientUnits="userSpaceOnUse"><stop stop-color="#E41003"/><stop offset="1" stop-color="#FF4228"/></linearGradient><linearGradient id="b" x1="54.075" y1="34.603" x2="55.893" y2="59.261" gradientUnits="userSpaceOnUse"><stop stop-color="#FFB74B"/><stop offset="1" stop-color="#FFD84B"/></linearGradient><linearGradient id="c" x1="43.945" y1="21.701" x2="65.029" y2="32.367" gradientUnits="userSpaceOnUse"><stop stop-color="#FF814B"/><stop offset="1" stop-color="#FEC56F"/></linearGradient><linearGradient id="d" x1="18.499" y1="32.12" x2="46.553" y2="18.492" gradientUnits="userSpaceOnUse"><stop stop-color="#FF6C2D"/><stop offset="1" stop-color="#FFB74B"/></linearGradient><linearGradient id="e" x1="33.621" y1="46.141" x2="21.586" y2="29.827" gradientUnits="userSpaceOnUse"><stop stop-color="#E41003"/><stop offset="1" stop-color="#FF814B"/></linearGradient><linearGradient id="f" x1="52.668" y1="29.28" x2="37.298" y2="76.491" gradientUnits="userSpaceOnUse"><stop stop-color="#FF4228"/><stop offset="1" stop-color="#FF6C2D"/></linearGradient><linearGradient id="g" x1="38.086" y1="24.709" x2="78.881" y2="54.383" gradientUnits="userSpaceOnUse"><stop stop-color="#FFD84B"/><stop offset="1" stop-color="#FFF1C0"/></linearGradient><linearGradient id="h" x1="33.705" y1="33.651" x2="72.098" y2="5.663" gradientUnits="userSpaceOnUse"><stop stop-color="#FFB74B"/><stop offset="1" stop-color="#FFD391"/><stop offset="1" stop-color="#F6D3A4"/></linearGradient><linearGradient id="i" x1="34.337" y1="48.504" x2="27.952" y2="1.579" gradientUnits="userSpaceOnUse"><stop stop-color="#FFA24B"/><stop offset="1" stop-color="#FFB74B"/></linearGradient><linearGradient id="j" x1="57.236" y1="49.761" x2="8.219" y2="45.013" gradientUnits="userSpaceOnUse"><stop stop-color="#FF814B"/><stop offset="1" stop-color="#FFA24B"/></linearGradient><linearGradient id="k" x1="51.913" y1="43.467" x2="38.848" y2="62.86" gradientUnits="userSpaceOnUse"><stop stop-color="#FF4228"/><stop offset="1" stop-color="#fff"/></linearGradient><linearGradient id="l" x1="51.216" y1="29.707" x2="65.624" y2="48.124" gradientUnits="userSpaceOnUse"><stop stop-color="#EE977B"/><stop offset="1" stop-color="#fff"/></linearGradient><linearGradient id="m" x1="37.929" y1="26.028" x2="59.896" y2="18.018" gradientUnits="userSpaceOnUse"><stop stop-color="#EEB47B"/><stop offset="1" stop-color="#fff"/></linearGradient><linearGradient id="n" x1="30.303" y1="37.616" x2="29.474" y2="14.249" gradientUnits="userSpaceOnUse"><stop stop-color="#EE887B"/><stop offset="1" stop-color="#fff"/></linearGradient><linearGradient id="o" x1="38.969" y1="48.452" x2="16.491" y2="42.021" gradientUnits="userSpaceOnUse"><stop stop-color="#FF814B"/><stop offset="1" stop-color="#fff"/></linearGradient></defs></svg>